<svg xmlns="http://www.w3.org/2000/svg" viewBox="0 0 325.54 427.07"><title>Asset 1</title><g id="Layer_2" data-name="Layer 2"><g id="Layer_1-2" data-name="Layer 1"><path d="M0,165.07C.1,152.5.45,142.2,1.91,132c.21-1.44.6-2.85.87-4.29a6.65,6.65,0,0,1,5.11-5.5c17.57-5.09,35.27-9.66,53.21-13.34q30-6.18,60.4-10.61c3.31-.49,6.66-.76,10-1.07a5.21,5.21,0,0,1,3.48.61c1.48.95,2,1.93.86,3.58A158.49,158.49,0,0,0,119.36,133c-.53,1.39-1.64,1.83-2.94,2.21-8.85,2.57-18,3.95-27,5.38-15.88,2.48-31.62,5.62-47.27,9.28-2.23.52-2.93,1.42-2.84,3.82.45,11.85.37,23.72.95,35.56,1.83,37.29,8.41,73.57,24.19,107.72,11.57,25,27.81,46.35,50.67,62.21,13.59,9.43,28.66,15.51,44.73,19.21,4.8,1.11,9.19-.78,13.61-2,36.1-10.23,61.78-33.4,80.3-65.24,11.38-19.55,18.61-40.72,23.65-62.71a343.83,343.83,0,0,0,8.29-78.26c0-5.67.22-11.34.56-17,.13-2-.58-2.71-2.39-3.14-12.3-2.87-24.64-5.51-37.09-7.67s-25-3.58-37.21-7a5.07,5.07,0,0,1-3.79-3.35A159.1,159.1,0,0,0,190.08,102c-1.82-2.72-.76-4.84,2.67-4.76a92.91,92.91,0,0,1,11.28,1q33.91,5,67.45,12.11c15.47,3.34,30.71,7.45,45.91,11.76a7,7,0,0,1,5.34,5.6c2,8.86,2.3,17.89,2.6,26.9A360.67,360.67,0,0,1,318,240.7c-8.74,41.95-24.17,81.12-49.74,115.87-18.43,25-41.07,45.22-69.29,58.76a170.92,170.92,0,0,1-31.26,11.18c-5.09,1.32-9.71.06-14.4-1.23-33.23-9.19-60.61-27.6-83.4-53.13-22.59-25.31-38.35-54.6-49.76-86.35a332.88,332.88,0,0,1-16.53-68A366.55,366.55,0,0,1,0,165.07Z" fill="#fff"/><path d="M162.78,25.15c10.53,0,20.47,2.83,30.36,6.09,10.29,3.41,20.53,6.91,29.83,12.62a98.15,98.15,0,0,1,27.09,23.91,50.46,50.46,0,0,1,8.71,17.39,19.48,19.48,0,0,1-.21,10.94c-1.22,4-3.76,5.18-7.6,3.7-12.13-4.66-24.71-7.84-37.13-11.55-13.48-4-27.28-6.29-41.2-7.84-8.81-1-17.65-.39-26.47.75C122.25,84.24,99.41,91.43,76.66,99c-.73.24-1.45.54-2.16.83-3.72,1.51-6.25.37-7.5-3.51a21.36,21.36,0,0,1,.44-13.65c3.7-10.94,10.9-19.39,19.22-27,12.34-11.29,26.93-18.5,42.8-23.46,8.85-2.76,17.62-5.74,26.89-6.8A38.39,38.39,0,0,1,162.78,25.15Z" fill="#fff"/><path d="M84.87,0c12.85,0,26,2.33,37.84,9.69,3.61,2.23,6.92,4.84,9,8.63.6,1.07,1.54,2.4.4,3.55-1,1-2.28.34-3.38-.15-7.23-3.2-14.42-6.46-22.25-8-12.39-2.49-24.69-3.24-36.84,1.23a9.64,9.64,0,0,1-3.8.58,5.76,5.76,0,0,1-5.41-3.71,5.72,5.72,0,0,1,1.35-6.42,11.16,11.16,0,0,1,5.63-2.94A79.25,79.25,0,0,1,84.87,0Z" fill="#fff"/><path d="M237.73,0A73.92,73.92,0,0,1,258.9,2.67a9.68,9.68,0,0,1,4.86,2.77A5.77,5.77,0,0,1,265,11.88a5.61,5.61,0,0,1-5.22,3.58,9.15,9.15,0,0,1-3.3-.38c-19.44-6.58-37.94-3.05-56,5.06-1.49.67-3,1.33-4.51,1.91-.88.33-1.92.59-2.66-.22s-.29-1.8.08-2.67A16.55,16.55,0,0,1,198.31,13c7.55-6.24,16.42-9.54,25.87-11.51A111.56,111.56,0,0,1,237.73,0Z" fill="#fff"/><path d="M231.7,239.18a26.68,26.68,0,0,0-2.83-.13c-5.54-.16-5.44-.18-6.39-5.54-3.21-18.09-12.95-31.72-28.63-41.11a53.82,53.82,0,0,0-22.62-7.29c-2-.19-2.72-1-2.56-3a46.5,46.5,0,0,0,0-5.41c-.14-3.54-2.43-5.64-6-5.61s-5.68,2.1-5.86,5.5c-.05.94,0,1.89,0,2.83-.08,6.06.91,5.1-5,6a55.71,55.71,0,0,0-28.53,12.79,58.41,58.41,0,0,0-20.8,38.23c-.27,2-1.09,2.61-3,2.53a42.24,42.24,0,0,0-5.15.14c-3.5.26-5.74,2.57-5.69,5.76s2.41,5.33,6,5.45a32.51,32.51,0,0,0,4.63-.11c2.11-.24,3.13.46,3.39,2.68a49.48,49.48,0,0,0,3.73,14.15c9.21,20.93,24.87,33.67,47.67,37.16,1.93.29,2.67,1.08,2.61,3-.06,2.31,0,4.64.13,6.95a5.93,5.93,0,0,0,11.84,0,49.06,49.06,0,0,0,.1-6.18c-.18-2.54.71-3.55,3.36-3.92a57.18,57.18,0,0,0,34.2-17.47,59.23,59.23,0,0,0,16.52-33.92c.26-2,1.12-2.63,3-2.49a35.79,35.79,0,0,0,5.67.08A5.47,5.47,0,0,0,236.8,245,5.57,5.57,0,0,0,231.7,239.18Zm-27.48,10.48a44.31,44.31,0,0,0,4.89.17c2,0,2.52.88,2.16,2.76-2.87,14.68-10.39,26.18-23.18,34.11A49.84,49.84,0,0,1,172,292.81c-2,.43-3.17-.07-3-2.43a38,38,0,0,0,0-4.89c-.18-3.34-2.55-5.25-6.38-5.24s-6.15,1.93-6.31,5.3c-.07,1.54,0,3.09,0,4.64,0,2.63-.52,3.09-3,2.6a47.9,47.9,0,0,1-22.32-10.62,50.11,50.11,0,0,1-16.82-29.39c-.42-2.18.24-3.06,2.45-3a38.47,38.47,0,0,0,3.87-.11c3.62-.18,6-2.54,5.94-5.77s-2.52-5.28-6.06-5.31h-2.06c-4.78.14-4.78.14-3.79-4.56,4.13-19.55,19.46-34.54,38.29-37.44,3.69-.57,4.07-.25,4.11,3.41,0,1.12,0,2.24.05,3.35a5.69,5.69,0,0,0,11.37-.09c.07-1.28,0-2.58.05-3.86.06-2.85.58-3.37,3.43-2.9,14.42,2.39,25.41,9.88,33.06,22.31a49.31,49.31,0,0,1,6.39,17.3c.35,1.92-.21,2.75-2.23,2.59a37.83,37.83,0,0,0-4.64-.09A5.4,5.4,0,0,0,199,244,5.54,5.54,0,0,0,204.22,249.66Z" fill="#fff"/><path d="M162.75,222.26c-10.32,0-22.35,9.14-21.92,22.82-.09,12.95,12,21.84,22,21.83,11.72,0,22-10.83,21.83-22.61C184.58,231.31,173.08,222.26,162.75,222.26Z" fill="#fff"/></g></g></svg>